HIERARCHY
ROOT Hips
{
	OFFSET 0.000000 0.000000 0.000000
	CHANNELS 6 Xposition Yposition Zposition Xrotation Yrotation Zrotation
	JOINT LeftUpLeg_virtual
	{
		OFFSET 0.000000 0.000000 0.000000
		CHANNELS 3 Xrotation Yrotation Zrotation
		JOINT LeftUpLeg
		{
			OFFSET 11.394100 -6.187798 -0.413800
			CHANNELS 3 Xrotation Yrotation Zrotation
			JOINT LeftLeg
			{
				OFFSET 0.430247 -32.302673 3.732800
				CHANNELS 3 Xrotation Yrotation Zrotation
				JOINT LeftFoot
				{
					OFFSET -0.430247 -48.264931 -6.423300
					CHANNELS 3 Xrotation Yrotation Zrotation
					JOINT LeftToeBase
					{
						OFFSET 4.230900 -16.068199 23.438400
						CHANNELS 3 Xrotation Yrotation Zrotation
						JOINT LeftToe_End
						{
							OFFSET 4.510700 0.695400 19.974600
							CHANNELS 3 Xrotation Yrotation Zrotation
							End Site
							{
								OFFSET 0 0 0
							}
						}
					}
				}
			}
		}
	}
	JOINT RightUpLeg_virtual
	{
		OFFSET 0.000000 0.000000 0.000000
		CHANNELS 3 Xrotation Yrotation Zrotation
		JOINT RightUpLeg
		{
			OFFSET -11.333700 -6.187798 -0.413800
			CHANNELS 3 Xrotation Yrotation Zrotation
			JOINT RightLeg
			{
				OFFSET -0.430392 -32.302628 3.733000
				CHANNELS 3 Xrotation Yrotation Zrotation
				JOINT RightFoot
				{
					OFFSET 0.430392 -48.264973 -6.423500
					CHANNELS 3 Xrotation Yrotation Zrotation
					JOINT RightToeBase
					{
						OFFSET -4.230900 -16.068199 23.438400
						CHANNELS 3 Xrotation Yrotation Zrotation
						JOINT RightToe_End
						{
							OFFSET -4.510700 0.695400 19.974600
							CHANNELS 3 Xrotation Yrotation Zrotation
							End Site
							{
								OFFSET 0 0 0
							}
						}
					}
				}
			}
		}
	}
	JOINT Spine_virtual
	{
		OFFSET 0.000000 0.000000 0.000000
		CHANNELS 3 Xrotation Yrotation Zrotation
		JOINT Spine
		{
			OFFSET -0.002400 12.777504 0.315300
			CHANNELS 3 Xrotation Yrotation Zrotation
			JOINT Spine1
			{
				OFFSET -0.002067 5.816869 0.032633
				CHANNELS 3 Xrotation Yrotation Zrotation
				JOINT Spine1_split
				{
					OFFSET -0.002067 5.816869 0.032633
					CHANNELS 3 Xrotation Yrotation Zrotation
					JOINT Spine2
					{
						OFFSET -0.002067 5.816869 0.032633
						CHANNELS 3 Xrotation Yrotation Zrotation
						JOINT Neck_virtual
						{
							OFFSET 0.000000 0.000000 0.000000
							CHANNELS 3 Xrotation Yrotation Zrotation
							JOINT Neck
							{
								OFFSET -0.003700 21.199493 -0.826900
								CHANNELS 3 Xrotation Yrotation Zrotation
								JOINT Head
								{
									OFFSET 0.000000 20.442200 4.834800
									CHANNELS 3 Xrotation Yrotation Zrotation
									JOINT HeadTop_End
									{
										OFFSET 0.000000 34.668396 4.968400
										CHANNELS 3 Xrotation Yrotation Zrotation
										End Site
										{
											OFFSET 0 0 0
										}
									}
								}
							}
						}
						JOINT LeftShoulder_virtual
						{
							OFFSET 0.000000 0.000000 0.000000
							CHANNELS 3 Xrotation Yrotation Zrotation
							JOINT LeftShoulder
							{
								OFFSET 3.288150 8.794197 -1.372250
								CHANNELS 3 Xrotation Yrotation Zrotation
								JOINT LeftShoulder_split
								{
									OFFSET 3.288150 8.794197 -1.372250
									CHANNELS 3 Xrotation Yrotation Zrotation
									JOINT LeftArm
									{
										OFFSET 11.953299 -2.279007 -0.146200
										CHANNELS 3 Xrotation Yrotation Zrotation
										JOINT LeftForeArm
										{
											OFFSET 18.448900 0.000000 0.000000
											CHANNELS 3 Xrotation Yrotation Zrotation
											JOINT LeftHand
											{
												OFFSET 29.527798 0.000000 0.000000
												CHANNELS 3 Xrotation Yrotation Zrotation
												End Site
												{
													OFFSET 0 0 0
												}
											}
										}
									}
								}
							}
						}
						JOINT RightShoulder_virtual
						{
							OFFSET 0.000000 0.000000 0.000000
							CHANNELS 3 Xrotation Yrotation Zrotation
							JOINT RightShoulder
							{
								OFFSET -3.249400 8.794197 -1.372250
								CHANNELS 3 Xrotation Yrotation Zrotation
								JOINT RightShoulder_split
								{
									OFFSET -3.249400 8.794197 -1.372250
									CHANNELS 3 Xrotation Yrotation Zrotation
									JOINT RightArm
									{
										OFFSET -11.953299 -2.279007 -0.146200
										CHANNELS 3 Xrotation Yrotation Zrotation
										JOINT RightForeArm
										{
											OFFSET -18.448900 0.000000 0.000000
											CHANNELS 3 Xrotation Yrotation Zrotation
											JOINT RightHand
											{
												OFFSET -29.527802 0.000000 0.000000
												CHANNELS 3 Xrotation Yrotation Zrotation
												End Site
												{
													OFFSET 0 0 0
												}
											}
										}
									}
								}
							}
						}
					}
				}
			}
		}
	}
}
MOTION
Frames: 6
Frame Time: 0.03333333
0.646932 110.707321 -4.077332 0.000000 0.000000 0.000000 -92.859707 1.411041 1.733274 -3.726830 17.758075 18.751741 6.287349 5.252820 1.364680 23.165072 29.361248 -30.573638 2.009823 -0.000003 0.000010 0.000000 0.000000 0.000000 -92.859707 1.411041 1.733274 -2.479749 -17.572111 -13.026848 5.106428 -7.698982 -8.382666 33.427871 -29.549485 29.296269 -5.697245 -0.000000 0.000012 0.000000 0.000000 0.000000 -92.859707 1.411041 1.733274 3.940183 1.369085 -0.619876 17.892657 2.300589 -1.698433 0.000000 0.000000 0.000000 0.000000 0.000000 0.000000 15.709568 2.912673 -1.979400 0.675402 0.828532 -3.845562 19.254921 3.369947 -9.778014 0.000000 0.000000 0.000000 15.709568 2.912673 -1.979400 0.698956 6.300042 -0.044478 0.000000 0.000000 0.000000 17.552396 -48.789359 -38.377655 0.000103 -78.695213 0.000090 0.000000 0.000000 0.000000 15.709568 2.912673 -1.979400 0.904660 3.117775 16.151360 0.000000 0.000000 0.000000 -30.693009 38.671568 59.604465 -179.999978 55.804268 179.999978 0.000000 0.000000 0.000000 
0.575873 110.647552 -4.072510 0.000000 0.000000 0.000000 -92.964960 0.982311 1.572169 -3.553088 17.815369 18.725203 6.205864 5.360507 1.532266 23.344979 29.369687 -30.565083 2.018165 -0.000007 0.000001 0.000000 0.000000 0.000000 -92.964960 0.982311 1.572169 -2.525652 -17.560430 -12.901081 4.972621 -7.696435 -8.154365 33.985310 -29.251067 28.898715 -6.237122 0.000000 -0.000005 0.000000 0.000000 0.000000 -92.964960 0.982311 1.572169 3.831688 1.358733 -0.570074 17.173665 2.320173 -1.615368 0.000000 0.000000 0.000000 0.000000 0.000000 0.000000 15.078710 2.910057 -1.904893 1.032852 0.830504 -3.592071 20.824678 3.567343 -10.053783 0.000000 0.000000 0.000000 15.078710 2.910057 -1.904893 0.987219 5.865647 -0.070264 0.000000 0.000000 0.000000 17.540354 -48.233645 -39.213441 -0.000066 -78.453001 -0.000057 0.000000 0.000000 0.000000 15.078710 2.910057 -1.904893 1.003565 3.077426 16.318586 0.000000 0.000000 0.000000 -30.625322 39.526120 60.112550 -179.999950 57.388745 179.999950 0.000000 0.000000 0.000000 
0.507869 110.555916 -3.927910 0.000000 0.000000 0.000000 -92.661946 0.752504 1.398291 -3.769846 17.740829 18.753242 5.899792 5.548482 1.570136 24.577158 29.372313 -30.579279 0.988531 -0.000004 0.000007 0.000000 0.000000 0.000000 -92.661946 0.752504 1.398291 -2.908306 -17.461770 -12.762986 4.654528 -7.924858 -7.806410 34.924769 -28.897844 28.484993 -7.028776 0.000009 -0.000013 0.000000 0.000000 0.000000 -92.661946 0.752504 1.398291 3.668673 1.280218 -0.507763 16.309071 2.217898 -1.457731 0.000000 0.000000 0.000000 0.000000 0.000000 0.000000 14.304877 2.791182 -1.752529 1.371173 0.810480 -3.366241 22.599872 3.500705 -10.232340 0.000000 0.000000 0.000000 14.304877 2.791182 -1.752529 1.036053 5.431823 -0.068783 0.000000 0.000000 0.000000 17.978690 -47.538977 -40.193754 0.000034 -78.189458 0.000042 0.000000 0.000000 0.000000 14.304877 2.791182 -1.752529 1.002757 3.007375 16.447019 0.000000 0.000000 0.000000 -30.000715 40.337653 60.294280 179.999991 58.563251 -179.999991 0.000000 0.000000 0.000000 
0.479703 110.497223 -3.689713 0.000000 0.000000 0.000000 -91.609236 0.858149 1.138561 -4.721743 17.425783 18.937678 5.854091 6.038252 1.368111 26.462533 29.333948 -30.608461 -0.570094 -0.000007 0.000023 0.000000 0.000000 0.000000 -91.609236 0.858149 1.138561 -3.874102 -17.246468 -12.235747 4.251655 -7.608803 -7.936886 36.967740 -29.258877 28.837216 -8.215536 -0.000019 0.000005 0.000000 0.000000 0.000000 -91.609236 0.858149 1.138561 3.459176 1.052664 -0.422908 15.322307 1.836152 -1.235604 0.000000 0.000000 0.000000 0.000000 0.000000 0.000000 13.427538 2.371646 -1.472053 1.467836 0.767054 -3.162886 23.529954 3.337674 -10.285326 0.000000 0.000000 0.000000 13.427538 2.371646 -1.472053 0.975460 4.991313 -0.080096 0.000000 0.000000 0.000000 18.149368 -45.959254 -42.436546 0.000199 -78.113793 0.000186 0.000000 0.000000 0.000000 13.427538 2.371646 -1.472053 0.920507 2.913159 16.512397 0.000000 0.000000 0.000000 -28.275983 40.716107 59.228955 -179.999978 58.201217 179.999978 0.000000 0.000000 0.000000 
0.469956 110.477951 -3.411186 0.000000 0.000000 0.000000 -90.103343 1.167328 0.836736 -6.264842 16.924736 19.200587 6.096457 6.652131 1.025840 28.543113 29.271667 -30.649347 -2.481283 0.000004 0.000010 0.000000 0.000000 0.000000 -90.103343 1.167328 0.836736 -5.106578 -16.964057 -11.824449 4.140240 -7.577250 -8.104465 38.473506 -29.539895 29.448388 -9.118854 0.000004 -0.000008 0.000000 0.000000 0.000000 -90.103343 1.167328 0.836736 3.243646 0.802541 -0.332973 14.311506 1.396545 -1.013137 0.000000 0.000000 0.000000 0.000000 0.000000 0.000000 12.511436 1.904985 -1.191484 1.469659 0.741559 -3.018225 23.462687 3.217813 -10.302682 0.000000 0.000000 0.000000 12.511436 1.904985 -1.191484 0.898265 4.540050 -0.170363 0.000000 0.000000 0.000000 18.276997 -44.009159 -44.987372 0.000316 -78.127897 0.000294 0.000000 0.000000 0.000000 12.511436 1.904985 -1.191484 0.805421 2.813790 16.502201 0.000000 0.000000 0.000000 -25.783185 40.754895 57.315799 -179.999923 56.726972 179.999923 0.000000 0.000000 0.000000 
0.444260 110.474182 -3.239128 0.000000 0.000000 0.000000 -88.967640 1.415840 0.650109 -7.232683 16.466013 19.323797 5.807376 7.189276 0.675861 30.423520 29.241423 -30.730022 -4.337482 -0.000009 -0.000004 0.000000 0.000000 0.000000 -88.967640 1.415840 0.650109 -5.899934 -16.775073 -11.776395 4.081044 -7.687287 -7.940483 39.344335 -29.686884 29.816047 -9.735209 -0.000011 0.000020 0.000000 0.000000 0.000000 -88.967640 1.415840 0.650109 3.023912 0.514194 -0.269301 13.279706 0.865039 -0.783413 0.000000 0.000000 0.000000 0.000000 0.000000 0.000000 11.566050 1.418214 -0.921089 1.240493 0.709910 -2.806799 22.276956 3.288685 -10.216062 0.000000 0.000000 0.000000 11.566050 1.418214 -0.921089 0.811677 4.082201 -0.348876 0.000000 0.000000 0.000000 18.567825 -41.785024 -47.550233 0.000120 -78.235698 0.000128 0.000000 0.000000 0.000000 11.566050 1.418214 -0.921089 0.659139 2.714204 16.452292 0.000000 0.000000 0.000000 -23.544226 40.816575 55.663801 -179.999991 55.861631 -179.999991 0.000000 0.000000 0.000000 
